<svg version="1.1" id="Layer_1" xmlns="http://www.w3.org/2000/svg" xmlns:xlink="http://www.w3.org/1999/xlink" x="0px" y="0px"
	 width="100%" viewBox="0 0 512 512" enable-background="new 0 0 512 512" xml:space="preserve">
<path fill="#000000" opacity="1.000000" stroke="none" 
	d="
M467.468658,513.000000 
	C455.039062,496.988617 443.136841,480.932983 431.104675,464.975311 
	C408.134735,434.511444 385.092590,404.102020 362.071045,373.677094 
	C361.082550,372.370697 360.000580,371.134949 359.072998,370.001678 
	C356.914612,370.037689 355.744385,371.351746 354.404480,372.260040 
	C322.043518,394.197266 286.466614,406.008972 247.274261,407.502899 
	C149.429489,411.232483 63.315834,342.558563 44.734661,248.231537 
	C30.297741,174.942719 50.856968,111.680443 104.756638,60.124268 
	C135.602463,30.619591 173.115417,13.505838 215.665527,8.666219 
	C281.471802,1.181458 338.082886,21.226076 384.542358,68.196434 
	C414.428650,98.411339 432.364868,135.203552 438.373993,177.424805 
	C447.033936,238.271454 431.028259,292.122437 391.487335,339.009613 
	C389.029816,341.923706 388.990540,343.578094 391.230652,346.526733 
	C427.209717,393.885345 463.013519,441.377228 499.017303,488.717010 
	C504.691925,496.178314 505.125549,503.843994 502.035614,512.600098 
	C490.645782,513.000000 479.291534,513.000000 467.468658,513.000000 
M103.446602,302.077698 
	C145.322357,358.578674 201.351761,382.856842 270.563263,371.090515 
	C349.135925,357.732697 406.287262,290.039764 407.411957,207.713394 
	C407.780762,180.716446 401.235077,154.922028 388.708313,130.831009 
	C354.437012,64.921768 281.823914,29.364986 208.927368,43.566311 
	C130.502075,58.844730 76.313522,126.197113 74.081055,201.545441 
	C72.999573,238.046539 82.693085,271.271149 103.446602,302.077698 
z"/>
<path fill="#000000" opacity="1.000000" stroke="none" 
	d="
M227.000061,107.697006 
	C270.152405,107.701851 312.804749,107.702179 355.457092,107.715965 
	C364.061340,107.718742 365.190033,108.850578 365.193054,117.546570 
	C365.213593,176.193436 365.225159,234.840317 365.224670,293.487183 
	C365.224609,301.321716 364.155640,302.363220 356.251556,302.363953 
	C278.944214,302.371063 201.636871,302.372314 124.329521,302.367676 
	C116.221474,302.367188 115.634880,301.805206 115.633842,293.991302 
	C115.626007,235.011154 115.624352,176.030991 115.634857,117.050842 
	C115.636421,108.304070 116.265045,107.708069 125.035065,107.706711 
	C158.856735,107.701485 192.678391,107.700058 227.000061,107.697006 
M355.068146,221.500000 
	C355.082001,202.835236 355.103119,184.170471 355.106140,165.505707 
	C355.107330,158.117233 355.089050,158.111496 347.557739,158.112000 
	C291.228912,158.115799 234.900116,158.128708 178.571304,158.113281 
	C174.620667,158.112198 170.014648,158.813660 169.204697,153.175781 
	C168.686066,149.565704 171.882874,147.915665 178.767563,147.914505 
	C200.432480,147.910843 222.097412,147.931488 243.762329,147.932373 
	C278.592865,147.933777 313.423370,147.935013 348.253906,147.916458 
	C354.959412,147.912888 355.029572,147.778580 355.126862,141.322891 
	C355.219696,135.161194 355.173737,128.987701 355.566040,122.843468 
	C355.847595,118.432755 354.271179,117.254715 349.879822,117.263138 
	C277.219238,117.402512 204.558319,117.364388 131.897476,117.373421 
	C125.312523,117.374245 125.294250,117.397858 125.293472,124.086113 
	C125.287224,177.915131 125.286636,231.744156 125.289436,285.573181 
	C125.289803,292.666443 125.303185,292.667114 132.491974,292.666077 
	C204.319519,292.655823 276.147064,292.645111 347.974609,292.635345 
	C355.667725,292.634308 355.844177,292.629089 355.518524,284.978821 
	C354.631989,264.155243 355.272095,243.325470 355.068146,221.500000 
z"/>
<path fill="#000000" opacity="1.000000" stroke="none" 
	d="
M235.581848,191.127014 
	C235.714676,183.217529 236.224777,182.675415 243.620651,182.665680 
	C260.445404,182.643524 277.270294,182.645615 294.095062,182.666962 
	C300.696899,182.675354 302.152527,184.019089 302.190796,190.435211 
	C302.258331,201.762375 302.253113,213.090576 302.182281,224.417740 
	C302.144592,230.446060 300.438721,232.163834 294.424377,232.188431 
	C279.931976,232.247726 265.437042,232.340912 250.947769,232.117310 
	C246.657196,232.051071 245.008545,233.230255 245.170700,237.731689 
	C245.482330,246.382874 245.297928,255.053207 245.244354,263.715149 
	C245.234192,265.355804 245.177261,267.108368 244.608566,268.606934 
	C243.772995,270.808685 241.936615,272.052551 239.460678,271.614990 
	C237.268402,271.227539 235.794785,269.814850 235.706131,267.548645 
	C235.543686,263.396332 235.577896,259.235321 235.576523,255.077957 
	C235.569580,233.921997 235.577484,212.766022 235.581848,191.127014 
M252.627777,222.056076 
	C264.096802,222.056778 275.566559,221.984558 287.034424,222.101181 
	C290.627350,222.137726 292.183319,220.778152 292.114716,217.131195 
	C291.986542,210.318832 292.025909,203.501877 292.095093,196.687866 
	C292.127106,193.538254 290.808563,192.261292 287.598419,192.287964 
	C274.966797,192.392929 262.333496,192.376572 249.701416,192.303452 
	C246.556168,192.285263 245.176163,193.476547 245.242432,196.717560 
	C245.371536,203.031097 245.584625,209.369476 245.174362,215.659149 
	C244.840958,220.770340 246.677628,222.790619 252.627777,222.056076 
z"/>
<path fill="#000000" opacity="1.000000" stroke="none" 
	d="
M176.870789,196.003052 
	C177.984344,192.807159 178.949234,189.973694 179.983521,187.165802 
	C180.885590,184.716843 182.099579,182.628143 185.221603,182.676544 
	C188.294556,182.724213 189.528458,184.732727 190.420013,187.227478 
	C196.014526,202.882553 201.628479,218.530670 207.218353,234.187408 
	C210.628052,243.737732 214.033463,253.289795 217.382507,262.861481 
	C218.445389,265.899261 219.661865,269.452087 215.601089,270.975891 
	C211.248276,272.609283 209.386887,269.510193 208.145813,265.820648 
	C206.343674,260.463104 204.284409,255.192413 202.452347,249.844406 
	C201.569763,247.268051 200.011688,246.233734 197.251907,246.277740 
	C189.265854,246.405106 181.274353,246.419647 173.289276,246.261993 
	C170.269913,246.202393 168.766296,247.430084 167.856445,250.199554 
	C166.092621,255.568466 164.000610,260.829254 162.222107,266.193726 
	C161.022675,269.811523 159.010590,272.438263 154.986282,271.005035 
	C151.025375,269.594421 151.668533,266.313751 152.843719,263.051910 
	C160.846756,240.838852 168.789856,218.604233 176.870789,196.003052 
M173.849640,233.940308 
	C173.427063,235.266159 173.670639,236.461807 175.212799,236.501617 
	C182.265686,236.683685 189.336716,237.044708 197.387558,236.169968 
	C193.303299,224.693619 189.533661,214.101303 185.764023,203.509003 
	C185.386703,203.562592 185.009384,203.616180 184.632080,203.669785 
	C181.115631,213.524277 177.599167,223.378784 173.849640,233.940308 
z"/>
<path fill="#000000" opacity="1.000000" stroke="none" 
	d="
M318.716187,198.018585 
	C318.723083,194.690063 318.696777,191.857269 318.747467,189.025864 
	C318.806824,185.709732 319.815735,182.885773 323.691986,182.826385 
	C327.619629,182.766251 328.512268,185.711304 328.820251,188.932037 
	C328.836090,189.097733 328.849762,189.264496 328.849731,189.430756 
	C328.845703,214.419830 328.849609,239.408920 328.808777,264.397949 
	C328.806610,265.712952 328.546051,267.061188 328.192169,268.334595 
	C327.583740,270.523834 325.944916,271.617279 323.750275,271.706970 
	C321.457275,271.800629 319.867035,270.501068 319.293304,268.410889 
	C318.818665,266.681732 318.747253,264.802490 318.744232,262.989319 
	C318.708282,241.497894 318.718750,220.006424 318.716187,198.018585 
z"/>
<path fill="#000000" opacity="1.000000" stroke="none" 
	d="
M236.999908,129.695984 
	C243.318710,129.700058 249.137543,129.708939 254.956390,129.707153 
	C258.352448,129.706116 261.126740,130.867935 261.067383,134.664459 
	C261.007416,138.497620 258.152679,139.388962 254.774246,139.378281 
	C240.975403,139.334641 227.176270,139.339584 213.377396,139.378998 
	C210.020584,139.388580 207.079468,138.495789 206.991348,134.712814 
	C206.894745,130.564575 210.069229,129.699585 213.557037,129.701248 
	C221.204681,129.704895 228.852310,129.698578 236.999908,129.695984 
z"/>
<path fill="#000000" opacity="1.000000" stroke="none" 
	d="
M333.472900,139.277618 
	C327.708618,139.332245 322.390106,139.348633 317.071564,139.350967 
	C314.068298,139.352295 311.726654,138.313339 311.546021,134.955841 
	C311.354370,131.394928 313.572327,129.828781 316.842957,129.759460 
	C321.992981,129.650314 327.147064,129.708984 332.299255,129.734879 
	C335.114594,129.749023 337.222412,131.011368 337.778809,133.839111 
	C338.359924,136.792206 336.746552,138.535034 333.472900,139.277618 
z"/>
<path fill="#000000" opacity="1.000000" stroke="none" 
	d="
M276.886749,134.108871 
	C277.661285,131.122101 279.485016,129.843094 282.042664,129.773788 
	C285.848785,129.670654 289.666443,129.622620 293.466888,129.806442 
	C296.291718,129.943069 298.185608,131.564346 298.213165,134.521835 
	C298.240753,137.482544 296.424347,139.140762 293.545685,139.253220 
	C289.577026,139.408249 285.594482,139.406326 281.624756,139.271133 
	C278.708679,139.171844 277.180115,137.376572 276.886749,134.108871 
z"/>
</svg>